<svg width="117" height="87" viewBox="0 0 117 87" fill="none" xmlns="http://www.w3.org/2000/svg">
<path d="M100.473 50.0766C96.4031 50.0975 92.8654 51.0694 89.9035 52.5063C88.8163 50.3721 87.7295 48.4708 87.538 47.076C87.3246 45.4493 87.0691 44.4561 87.3246 42.5122C87.5805 40.5683 88.7313 37.8001 88.7098 37.589C88.6888 37.3778 88.4539 36.3846 86.1099 36.3637C83.7659 36.3424 81.7413 36.8073 81.5069 37.42C81.2724 38.0326 80.825 39.4273 80.5266 40.8637C80.1217 42.9771 75.8386 50.5198 73.3881 54.471C72.5993 52.9291 71.9175 51.5765 71.768 50.499C71.5551 48.8722 71.2991 47.879 71.5551 45.9351C71.811 43.9912 72.9617 41.2235 72.9403 41.0119C72.9188 40.8007 72.6843 39.8075 70.3403 39.7866C67.9959 39.7653 65.9713 40.2302 65.7373 40.8429C65.5029 41.4559 65.247 42.8923 64.7571 44.2871C64.2667 45.6818 58.5769 58.275 57.0853 61.5285C56.4824 62.8453 55.8501 64.1487 55.1887 65.4376C55.1887 65.4376 55.1672 65.501 55.1032 65.6066C54.8954 66.0107 54.6824 66.4122 54.4643 66.811V66.8318C54.1444 67.4028 53.8035 67.9307 53.633 67.9307C53.5051 67.9307 53.2706 66.4095 53.6755 64.3387C54.5278 59.9652 56.5524 53.1615 56.5314 52.9291C56.5314 52.8022 56.9148 51.6191 55.2102 51.006C53.5476 50.3934 52.9512 51.4075 52.8017 51.4075C52.6527 51.4075 52.5458 51.7668 52.5458 51.7668C52.5458 51.7668 54.4003 44.118 49.0085 44.118C45.6418 44.118 40.9958 47.7734 38.6943 51.0694C36.078 52.4811 33.4639 53.8968 30.8521 55.3166C29.5953 56.0139 28.2951 56.7113 27.0804 57.3661C26.9949 57.2818 26.9099 57.1758 26.8244 57.0915C20.3034 50.1822 8.24203 45.3012 8.75342 36.0257C8.94537 32.6449 10.1171 23.7705 31.9178 12.9947C49.8609 4.22583 64.1392 6.65549 66.6111 12.0436C70.1484 19.7349 58.9608 34.0183 40.4204 36.0887C33.3455 36.8708 29.6373 34.1661 28.7 33.152C27.7197 32.0953 27.5703 32.0318 27.2079 32.2435C26.6115 32.5606 26.9949 33.5113 27.2079 34.0605C27.7622 35.4969 30.0422 38.0326 33.8994 39.2796C37.3091 40.378 45.5988 40.991 55.6361 37.1454C66.8666 32.8348 75.6467 20.8546 73.0682 10.8183C70.4893 0.633908 53.4411 -2.72556 37.3091 2.95799C27.7197 6.33921 17.32 11.6634 9.84019 18.594C0.953662 26.834 -0.45301 33.997 0.122364 36.9976C2.18987 47.6465 17.0006 54.5771 22.9248 59.7114C22.6264 59.8804 22.349 60.0286 22.115 60.1555C19.1526 61.6132 7.85814 67.4658 5.04526 73.6568C1.84894 80.6716 5.55711 85.7009 8.00759 86.3765C15.6154 88.4686 23.4362 84.7076 27.6343 78.4953C31.8323 72.2834 31.321 64.2119 29.3819 60.5144C29.3604 60.4722 29.3394 60.4296 29.2964 60.3875C30.0637 59.9439 30.8521 59.479 31.6194 59.0354C33.0297 58.2088 34.4578 57.4126 35.9029 56.6474C35.1781 58.6126 34.6452 60.958 34.3898 64.3387C34.0699 68.3113 35.7105 73.4665 37.863 75.4947C38.8223 76.3828 39.9516 76.4037 40.6764 76.4037C43.1908 76.4037 44.3206 74.3329 45.5778 71.8819C47.112 68.8818 48.4972 65.3954 48.4972 65.3954C48.4972 65.3954 46.771 74.8191 51.4595 74.8191C53.1641 74.8191 54.8902 72.6214 55.6576 71.5017V71.5226C55.6576 71.5226 55.7001 71.4592 55.7855 71.3114C55.956 71.0368 56.0625 70.8674 56.0625 70.8674V70.8257C56.7443 69.6421 58.279 66.9587 60.559 62.5004C63.4998 56.7534 66.3342 49.5696 66.3342 49.5696C66.3342 49.5696 66.5901 51.3232 67.4635 54.239C67.9753 55.9505 69.0401 57.831 69.8929 59.648C69.2111 60.5991 68.7847 61.127 68.7847 61.127L68.8061 61.1483C68.2518 61.8665 67.6554 62.6481 66.9946 63.4094C64.6716 66.1558 61.9017 69.3045 61.5178 70.2126C61.0699 71.2901 61.1769 72.0722 62.0296 72.7062C62.6475 73.1711 63.7553 73.234 64.885 73.1711C66.9735 73.0229 68.4437 72.5158 69.1681 72.1991C70.2978 71.7976 71.619 71.1846 72.8548 70.276C75.1353 68.6067 76.52 66.2192 76.3925 63.0714C76.3285 61.3386 75.7531 59.6059 75.0498 57.9787C75.2632 57.6833 75.4547 57.3874 75.6681 57.0915C79.2694 51.8724 82.0612 46.1462 82.0612 46.1462C82.0612 46.1462 82.3172 47.8998 83.1905 50.8161C83.6169 52.2951 84.4907 53.901 85.2575 55.4643C81.8693 58.1903 79.7808 61.3594 79.0349 63.4302C77.6927 67.2759 78.7365 69.0082 80.7185 69.4097C81.6134 69.6 82.8921 69.1772 83.8298 68.7757C85.0231 68.3956 86.4298 67.7408 87.7725 66.7684C90.0529 65.0995 92.2475 62.775 92.1195 59.6272C92.0555 58.1903 91.6721 56.7743 91.1392 55.4009C94.0161 54.2182 97.7243 53.563 102.455 54.1122C112.599 55.2953 114.602 61.5706 114.218 64.2123C113.835 66.8531 111.704 68.29 111.001 68.7336C110.297 69.1777 110.063 69.3254 110.127 69.6421C110.212 70.107 110.553 70.0862 111.15 70.0014C111.981 69.8537 116.478 67.8672 116.669 63.0075C116.989 56.7956 111.022 50.0132 100.473 50.0766ZM22.2215 76.2346C18.8542 79.8687 14.1662 81.2421 12.1417 80.0803C9.96815 78.8333 10.8205 73.4665 14.9546 69.6213C17.469 67.2759 20.7083 65.0991 22.8608 63.7683C23.3507 63.4724 24.0755 63.0501 24.9493 62.5217C25.0983 62.437 25.1838 62.3948 25.1838 62.3948L25.6952 62.0776C27.2079 67.5713 25.7592 72.4103 22.2215 76.2346ZM46.7285 59.7114C45.5563 62.543 43.1058 69.7903 41.6142 69.3888C40.3354 69.0508 39.5466 63.5571 41.3582 58.1269C42.2745 55.4009 44.2136 52.147 45.3433 50.8796C47.1759 48.8509 49.2005 48.1744 49.6904 48.9991C50.3087 50.0766 47.4529 57.9365 46.7285 59.7114ZM66.9521 69.3041C66.4617 69.5578 65.9933 69.7269 65.7798 69.6C65.6309 69.5153 65.9933 69.1772 65.9933 69.1772C65.9933 69.1772 68.5292 66.473 69.5305 65.2473C70.1063 64.5291 70.7877 63.684 71.5126 62.7329V63.0075C71.5126 66.2405 68.3583 68.4169 66.9516 69.3041H66.9521ZM82.5511 65.7756C82.1887 65.5219 82.2527 64.6768 83.4674 62.0355C83.9363 61.0001 85.0441 59.2678 86.9412 57.5985C87.1541 58.2746 87.3036 58.9298 87.2821 59.5424C87.2606 63.6205 84.3202 65.1417 82.5511 65.7756Z" fill="#CD6799"/>
</svg>
