<svg xmlns="http://www.w3.org/2000/svg" width="50" height="50" style="display: none;">
<symbol id="html5_icon" viewBox="0 0 121 120">
<path d="M22.9817 102.004L14.5554 7.5H107.143L98.7054 101.989L60.7929 112.5L22.9817 102.004Z" fill="#E44F26"/>
<path d="M60.8492 104.468L91.4867 95.9738L98.6942 15.2288H60.8492V104.468Z" fill="#F1662A"/>
<path d="M60.8492 50.2762H45.5117L44.4542 38.4075H60.8492V26.8162H31.7867L32.0642 29.9287L34.9104 61.8675H60.8492V50.2762ZM60.8492 80.3775L60.7967 80.3925L47.8892 76.9087L47.0642 67.665H35.4279L37.0517 85.86L60.7967 92.4525L60.8492 92.4375V80.3775Z" fill="#EBEBEB"/>
<path d="M60.8079 50.2762V61.8675H75.0804L73.7379 76.9012L60.8079 80.3887V92.4487L84.5717 85.86L84.7442 83.9025L87.4667 53.3887L87.7517 50.2762H60.8079ZM60.8079 26.8162V38.4075H88.8054L89.0379 35.805L89.5667 29.9287L89.8442 26.8162H60.8079Z" fill="white"/>
</symbol>

<symbol id="js_icon" viewBox="0 0 121 120">
  <path d="M8.11639 7.5H113.116V112.5H8.11639V7.5Z" fill="#F5DE19"/>
  <path d="M78.6501 89.5312C79.5448 91.3485 80.9347 92.8759 82.6598 93.9375C84.3848 94.9991 86.3747 95.5515 88.4001 95.5313C92.4876 95.5313 95.1014 93.4875 95.1014 90.6562C95.1014 87.2812 92.4164 86.0738 87.9164 84.105L85.4489 83.0475C78.3239 80.0138 73.5989 76.215 73.5989 68.1825C73.5989 60.7838 79.2239 55.1475 88.0476 55.1475C90.904 54.9412 93.7579 55.5805 96.2534 56.9856C98.7488 58.3907 100.775 60.4994 102.08 63.0488L94.3664 67.98C93.864 66.716 92.9892 65.6345 91.858 64.879C90.7268 64.1236 89.3927 63.7298 88.0326 63.75C87.4392 63.6906 86.84 63.7555 86.273 63.9404C85.7061 64.1254 85.1839 64.4265 84.7397 64.8244C84.2956 65.2224 83.9392 65.7085 83.6932 66.2518C83.4473 66.7951 83.3173 67.3837 83.3114 67.98C83.3114 70.9388 85.1451 72.1388 89.3789 73.98L91.8464 75.0375C100.231 78.6338 104.971 82.2975 104.971 90.5363C104.971 99.42 97.9926 104.287 88.6214 104.287C84.97 104.52 81.3293 103.691 78.1387 101.901C74.948 100.11 72.3438 97.4342 70.6401 94.1963L78.6501 89.5312ZM43.7939 90.3863C45.3426 93.135 46.7526 95.46 50.1426 95.46C53.3826 95.46 55.4301 94.1925 55.4301 89.2612V55.71H65.2964V89.3925C65.2964 99.6075 59.2964 104.257 50.5626 104.257C47.4755 104.426 44.4095 103.657 41.7677 102.051C39.126 100.444 37.0321 98.0761 35.7614 95.2575L43.7939 90.3863Z" fill="black"/>
</symbol>

<symbol id="react_icon" viewBox="0 0 114 101">
<g clip-path="url(#clip0_13_2986)">
<path d="M93.1056 32.7027C91.9031 32.2887 90.6904 31.9051 89.4687 31.5523C89.6739 30.7106 89.8628 29.8792 90.0305 29.0623C92.7838 15.6483 90.9839 4.84178 84.8361 1.28375C78.9416 -2.12722 69.3016 1.42949 59.5659 9.93342C58.6064 10.773 57.6682 11.6368 56.7521 12.524C56.1389 11.934 55.5149 11.3556 54.8803 10.7888C44.6767 1.69616 34.4493 -2.13608 28.3081 1.43215C22.4189 4.85374 20.675 15.0127 23.1538 27.7254C23.4004 28.9844 23.6788 30.237 23.9888 31.4819C22.5411 31.8947 21.1442 32.3342 19.8073 32.8019C7.84441 36.9881 0.204742 43.5483 0.204742 50.3529C0.204742 57.3808 8.40627 64.43 20.8661 68.7043C21.8763 69.0495 22.8948 69.3692 23.9209 69.6634C23.5876 71.0042 23.2918 72.354 23.0337 73.7114C20.6706 86.2035 22.516 96.1223 28.3893 99.5222C34.4555 103.033 44.637 99.4247 54.5506 90.7268C55.3545 90.0196 56.1407 89.2925 56.9084 88.546C57.9004 89.5066 58.9189 90.4393 59.9627 91.343C69.566 99.6365 79.0501 102.985 84.9177 99.5762C90.9782 96.055 92.948 85.3995 90.3907 72.4356C90.1892 71.42 89.9633 70.4094 89.7132 69.4047C90.4282 69.1921 91.13 68.9732 91.8141 68.7455C104.767 64.4384 113.195 57.4747 113.195 50.3529C113.195 43.5234 105.309 36.919 93.1056 32.7027ZM90.2962 64.1474C89.6783 64.3525 89.0445 64.5505 88.3983 64.7432C86.9683 60.1995 85.0386 55.3684 82.6769 50.3764C84.9305 45.5036 86.786 40.734 88.1759 36.22C89.3318 36.5558 90.4534 36.9097 91.5347 37.2832C101.991 40.8961 108.369 46.2372 108.369 50.3529C108.369 54.7367 101.481 60.4277 90.2962 64.1474ZM85.6557 73.3765C86.7865 79.1087 86.9476 84.2916 86.1986 88.3435C85.5259 91.9844 84.1727 94.4115 82.499 95.3839C78.9385 97.4526 71.3235 94.7637 63.111 87.6706C62.1401 86.8305 61.1927 85.9634 60.2699 85.0703C63.4539 81.5756 66.6357 77.5131 69.7412 73.0008C75.2036 72.5144 80.3641 71.7188 85.0439 70.6331C85.2694 71.5426 85.4734 72.4573 85.6557 73.3765ZM38.7257 95.0264C35.2468 96.2592 32.4759 96.2946 30.8009 95.3254C27.2369 93.2624 25.7552 85.298 27.7762 74.6151C28.0165 73.3527 28.2915 72.0972 28.6011 70.8502C33.2293 71.8779 38.3523 72.6168 43.8275 73.0624C46.9542 77.4776 50.2278 81.5358 53.5271 85.0894C52.8259 85.7703 52.1082 86.4338 51.3745 87.0793C46.9904 90.9252 42.5974 93.654 38.7257 95.0264ZM22.4277 64.1204C16.9181 62.2302 12.368 59.7738 9.24929 57.0933C6.44659 54.6848 5.032 52.2932 5.032 50.3529C5.032 46.2234 11.1657 40.9564 21.3962 37.3766C22.6378 36.9425 23.9372 36.5327 25.2856 36.1482C26.6997 40.7641 28.5544 45.5904 30.7925 50.4707C28.5252 55.4233 26.6441 60.3267 25.2163 64.997C24.2797 64.7278 23.3499 64.4355 22.4277 64.1204ZM27.891 26.7947C25.7676 15.9031 27.1777 7.68706 30.7268 5.62497C34.5067 3.42867 42.8653 6.56011 51.6755 14.4115C52.25 14.9247 52.8152 15.4482 53.3708 15.9819C50.0879 19.52 46.8443 23.548 43.7454 27.9371C38.4313 28.4315 33.3445 29.2253 28.6678 30.2889C28.3797 29.131 28.1206 27.9661 27.891 26.7951V26.7947ZM76.6301 38.8739C75.5255 36.9589 74.3798 35.0679 73.194 33.2024C76.7991 33.66 80.2533 34.2673 83.4969 35.0098C82.5233 38.1425 81.3095 41.4175 79.8808 44.7753C78.8365 42.7867 77.7527 40.8191 76.6301 38.8739ZM56.7544 19.4443C58.9806 21.8652 61.2104 24.5678 63.4036 27.5003C58.9546 27.2894 54.4982 27.2886 50.0491 27.4977C52.2444 24.5922 54.4932 21.8931 56.7544 19.4443ZM36.751 38.9071C35.6425 40.8367 34.5789 42.792 33.5613 44.7713C32.1559 41.4255 30.9532 38.1355 29.9712 34.9584C33.1949 34.2346 36.6327 33.6427 40.2149 33.1935C39.0159 35.0704 37.8609 36.9754 36.751 38.9067V38.9071ZM40.3177 67.8569C36.6169 67.4423 33.1274 66.881 29.9045 66.1767C30.902 62.9429 32.1312 59.5829 33.567 56.1653C34.5887 58.1461 35.6567 60.1026 36.77 62.033C37.9149 64.0176 39.1004 65.9614 40.3177 67.8569ZM56.8876 81.6027C54.5996 79.1255 52.3177 76.3848 50.0892 73.4372C52.2528 73.5222 54.4583 73.5656 56.7001 73.5656C59.0031 73.5656 61.2797 73.5138 63.5205 73.4137C61.3203 76.4145 59.0989 79.1592 56.8876 81.6027ZM79.9263 55.9907C81.4366 59.446 82.7095 62.7883 83.7203 65.9667C80.4444 66.7171 76.9073 67.3214 73.1804 67.7701C74.3746 65.8699 75.5311 63.9461 76.6491 61.9998C77.7858 60.0214 78.8784 58.0179 79.9263 55.9907ZM72.468 59.5794C70.7564 62.5634 68.9487 65.4909 67.0475 68.357C63.6038 68.6018 60.1524 68.7234 56.7001 68.7216C53.1837 68.7216 49.7635 68.6118 46.47 68.3974C44.5192 65.5378 42.677 62.6053 40.9471 59.6059H40.9476C39.2259 56.6225 37.6177 53.5745 36.1265 50.4685C37.6139 47.3618 39.2172 44.3124 40.933 41.3267L40.9326 41.3271C42.6477 38.3407 44.4753 35.4206 46.4113 32.5734C49.7714 32.3182 53.2172 32.1853 56.6996 32.1853H56.7001C60.1984 32.1853 63.6485 32.3195 67.0078 32.5765C68.9243 35.4195 70.7402 38.3295 72.4521 41.301C74.1736 44.2801 75.7981 47.3147 77.3231 50.3999C75.8138 53.5166 74.1944 56.5783 72.468 59.5794ZM82.4253 5.48056C86.2087 7.67067 87.6802 16.5024 85.303 28.0842C85.1512 28.8231 84.9808 29.5757 84.7954 30.339C80.1072 29.2528 75.0169 28.4452 69.6874 27.9433C66.5828 23.506 63.3656 19.4717 60.1361 15.9792C60.9825 15.1604 61.849 14.3628 62.7349 13.5871C71.0768 6.30141 78.8732 3.42468 82.4253 5.48056ZM56.7001 40.2263C62.2724 40.2263 66.7898 44.7603 66.7898 50.3529C66.7898 55.9456 62.2724 60.4795 56.7001 60.4795C51.1278 60.4795 46.6104 55.9456 46.6104 50.3529C46.6104 44.7603 51.1278 40.2263 56.7001 40.2263Z" fill="#00D8FF"/>
</g>
<defs>
<clipPath id="clip0_13_2986">
<rect width="113" height="101" fill="white" transform="translate(0.200012)"/>
</clipPath>
</defs>
</symbol>

<symbol id="vscode_icon" viewBox="0 0 112 112">
<path d="M101.535 17.605L81.354 7.88899C80.2143 7.33948 78.9319 7.15814 77.6845 7.37011C76.4372 7.58208 75.2867 8.17686 74.3925 9.07199L8.32998 69.3C7.52845 70.0273 7.04865 71.0432 6.99614 72.1243C6.94363 73.2053 7.32271 74.2629 8.04998 75.0645C8.13748 75.159 8.22498 75.25 8.31948 75.334L13.713 80.234C14.4178 80.8754 15.3249 81.2497 16.277 81.2919C17.229 81.3341 18.1657 81.0416 18.9245 80.465L98.497 20.125C99.098 19.6689 99.8144 19.3897 100.566 19.3186C101.317 19.2476 102.073 19.3877 102.749 19.7231C103.424 20.0585 103.993 20.5758 104.391 21.217C104.789 21.8581 105 22.5975 105 23.352V23.1175C105 21.9656 104.675 20.8372 104.062 19.862C103.449 18.8868 102.573 18.1045 101.535 17.605Z" fill="#0065A9"/>
<path d="M101.535 94.395L81.354 104.115C80.214 104.662 78.9319 104.843 77.6849 104.631C76.4379 104.419 75.2875 103.825 74.3925 102.932L8.32998 42.7C7.52845 41.9727 7.04865 40.9568 6.99614 39.8758C6.94363 38.7947 7.32271 37.7371 8.04998 36.9355C8.13748 36.841 8.22498 36.75 8.31948 36.666L13.713 31.766C14.4185 31.1219 15.3277 30.7459 16.2821 30.7037C17.2365 30.6615 18.1754 30.9557 18.935 31.535L98.497 91.875C99.098 92.3311 99.8144 92.6104 100.566 92.6814C101.317 92.7524 102.073 92.6123 102.749 92.2769C103.424 91.9415 103.993 91.4242 104.391 90.783C104.789 90.1419 105 89.4025 105 88.648V88.9C104.996 90.0488 104.669 91.1733 104.057 92.1451C103.444 93.1168 102.57 93.8965 101.535 94.395Z" fill="#007ACC"/>
<path d="M81.354 104.114C80.214 104.662 78.9319 104.843 77.6849 104.631C76.4379 104.419 75.2875 103.825 74.3925 102.931C74.8951 103.428 75.5329 103.764 76.2261 103.899C76.9192 104.034 77.6368 103.962 78.289 103.691C78.9411 103.42 79.4988 102.963 79.8921 102.376C80.2854 101.79 80.4969 101.1 80.5 100.394V11.606C80.5006 10.8965 80.2906 10.2028 79.8966 9.61274C79.5026 9.02271 78.9423 8.56288 78.2868 8.29152C77.6312 8.02016 76.9099 7.94946 76.2141 8.0884C75.5184 8.22734 74.8795 8.56965 74.3785 9.07197C75.2728 8.17717 76.4231 7.58235 77.6702 7.3698C78.9174 7.15724 80.1997 7.33744 81.34 7.88547L101.517 17.5875C102.559 18.0845 103.438 18.8657 104.054 19.8411C104.67 20.8165 104.998 21.9463 105 23.1V88.9C105 90.0528 104.675 91.1822 104.061 92.1581C103.447 93.134 102.571 93.9167 101.531 94.416L81.354 104.114Z" fill="#1F9CF0"/>
</symbol>

<symbol id="es6_icon" viewBox="0 0 121 119">
<path d="M22.3653 101.154L13.9428 7.4375H106.523L98.089 101.139L60.1765 111.562L22.3653 101.154Z" fill="#1572B6"/>
<path d="M60.2328 103.597L90.8703 95.174L98.0778 15.1019H60.2328V103.597Z" fill="#33A9DC"/>
<path d="M60.2328 49.054H75.5703L76.6278 37.2842H60.2328V25.7896H89.2953L89.0178 28.8724L86.1715 60.5487H60.2328V49.054Z" fill="white"/>
<path d="M60.304 78.9045L60.2515 78.9193L47.344 75.4609L46.519 66.2942H34.8828L36.5065 84.3413L60.2478 90.8788L60.304 90.864V78.9045Z" fill="#EBEBEB"/>
<path d="M74.584 60.0615L73.189 75.4534L60.2628 78.9119V90.8714L84.0228 84.3412L84.199 82.4001L86.2128 60.0615H74.584Z" fill="white"/>
<path d="M60.274 25.7896V37.2842H32.2765L32.044 34.6997L31.5153 28.8724L31.2378 25.7896H60.274ZM60.2328 49.054V60.5487H47.4865L47.254 57.9642L46.729 52.1369L46.4515 49.054H60.2328Z" fill="#EBEBEB"/>
</symbol>

<symbol id="github_icon" viewBox="0 0 88 88">
<path fill-rule="evenodd" clip-rule="evenodd" d="M44 0C19.69 0 0 19.69 0 44C0 63.47 12.595 79.915 30.085 85.745C32.285 86.13 33.11 84.81 33.11 83.655C33.11 82.61 33.055 79.145 33.055 75.46C22 77.495 19.14 72.765 18.26 70.29C17.765 69.025 15.62 65.12 13.75 64.075C12.21 63.25 10.01 61.215 13.695 61.16C17.16 61.105 19.635 64.35 20.46 65.67C24.42 72.325 30.745 70.455 33.275 69.3C33.66 66.44 34.815 64.515 36.08 63.415C26.29 62.315 16.06 58.52 16.06 41.69C16.06 36.905 17.765 32.945 20.57 29.865C20.13 28.765 18.59 24.255 21.01 18.205C21.01 18.205 24.695 17.05 33.11 22.715C36.63 21.725 40.37 21.23 44.11 21.23C47.85 21.23 51.59 21.725 55.11 22.715C63.525 16.995 67.21 18.205 67.21 18.205C69.63 24.255 68.09 28.765 67.65 29.865C70.455 32.945 72.16 36.85 72.16 41.69C72.16 58.575 61.875 62.315 52.085 63.415C53.68 64.79 55.055 67.43 55.055 71.555C55.055 77.44 55 82.17 55 83.655C55 84.81 55.825 86.185 58.025 85.745C66.7597 82.796 74.3497 77.1822 79.7268 69.6937C85.1039 62.2052 87.9974 53.219 88 44C88 19.69 68.31 0 44 0Z" fill="black"/>
</symbol>

<symbol id="git_icon" viewBox="0 0 106 105">
<g clip-path="url(#clip0_13_2984)">
<path d="M103.62 47.8219L57.7758 1.98038C55.1372 -0.6598 50.8552 -0.6598 48.2134 1.98038L38.6937 11.5001L50.7699 23.5763C53.5762 22.6281 56.7943 23.2642 59.0313 25.5012C61.2789 27.7525 61.9106 30.9981 60.9393 33.8134L72.5775 45.452C75.3932 44.482 78.6421 45.1095 80.891 47.3621C84.034 50.5039 84.034 55.596 80.891 58.7399C77.7471 61.8841 72.655 61.8841 69.5095 58.7399C67.1454 56.3733 66.5613 52.9013 67.7582 49.9888L56.9046 39.1352L56.9034 67.6973C57.6902 68.0863 58.4088 68.6002 59.0313 69.2189C62.1743 72.3607 62.1743 77.4532 59.0313 80.5995C55.8874 83.7422 50.7929 83.7422 47.6535 80.5995C44.5105 77.4532 44.5105 72.3611 47.6535 69.2193C48.4067 68.4658 49.3019 67.869 50.2872 67.4635V38.6352C49.3004 38.2324 48.4048 37.6353 47.6535 36.8793C45.2722 34.5013 44.6996 31.0071 45.9198 28.0831L34.0154 16.1775L2.58106 47.6099C-0.0603455 50.2525 -0.0603455 54.5349 2.58106 57.1755L48.4259 103.018C51.0652 105.658 55.3464 105.658 57.9891 103.018L103.619 57.3884C106.26 54.747 106.26 50.4621 103.619 47.8219" fill="#DE4C36"/>
</g>
<defs>
<clipPath id="clip0_13_2984">
<rect width="105" height="105" fill="white" transform="translate(0.600006)"/>
</clipPath>
</defs>
</symbol>

<symbol id="sass_icon" viewBox="0 0 117 87">
<path d="M100.473 50.0766C96.4031 50.0975 92.8654 51.0694 89.9035 52.5063C88.8163 50.3721 87.7295 48.4708 87.538 47.076C87.3246 45.4493 87.0691 44.4561 87.3246 42.5122C87.5805 40.5683 88.7313 37.8001 88.7098 37.589C88.6888 37.3778 88.4539 36.3846 86.1099 36.3637C83.7659 36.3424 81.7413 36.8073 81.5069 37.42C81.2724 38.0326 80.825 39.4273 80.5266 40.8637C80.1217 42.9771 75.8386 50.5198 73.3881 54.471C72.5993 52.9291 71.9175 51.5765 71.768 50.499C71.5551 48.8722 71.2991 47.879 71.5551 45.9351C71.811 43.9912 72.9617 41.2235 72.9403 41.0119C72.9188 40.8007 72.6843 39.8075 70.3403 39.7866C67.9959 39.7653 65.9713 40.2302 65.7373 40.8429C65.5029 41.4559 65.247 42.8923 64.7571 44.2871C64.2667 45.6818 58.5769 58.275 57.0853 61.5285C56.4824 62.8453 55.8501 64.1487 55.1887 65.4376C55.1887 65.4376 55.1672 65.501 55.1032 65.6066C54.8954 66.0107 54.6824 66.4122 54.4643 66.811V66.8318C54.1444 67.4028 53.8035 67.9307 53.633 67.9307C53.5051 67.9307 53.2706 66.4095 53.6755 64.3387C54.5278 59.9652 56.5524 53.1615 56.5314 52.9291C56.5314 52.8022 56.9148 51.6191 55.2102 51.006C53.5476 50.3934 52.9512 51.4075 52.8017 51.4075C52.6527 51.4075 52.5458 51.7668 52.5458 51.7668C52.5458 51.7668 54.4003 44.118 49.0085 44.118C45.6418 44.118 40.9958 47.7734 38.6943 51.0694C36.078 52.4811 33.4639 53.8968 30.8521 55.3166C29.5953 56.0139 28.2951 56.7113 27.0804 57.3661C26.9949 57.2818 26.9099 57.1758 26.8244 57.0915C20.3034 50.1822 8.24203 45.3012 8.75342 36.0257C8.94537 32.6449 10.1171 23.7705 31.9178 12.9947C49.8609 4.22583 64.1392 6.65549 66.6111 12.0436C70.1484 19.7349 58.9608 34.0183 40.4204 36.0887C33.3455 36.8708 29.6373 34.1661 28.7 33.152C27.7197 32.0953 27.5703 32.0318 27.2079 32.2435C26.6115 32.5606 26.9949 33.5113 27.2079 34.0605C27.7622 35.4969 30.0422 38.0326 33.8994 39.2796C37.3091 40.378 45.5988 40.991 55.6361 37.1454C66.8666 32.8348 75.6467 20.8546 73.0682 10.8183C70.4893 0.633908 53.4411 -2.72556 37.3091 2.95799C27.7197 6.33921 17.32 11.6634 9.84019 18.594C0.953662 26.834 -0.45301 33.997 0.122364 36.9976C2.18987 47.6465 17.0006 54.5771 22.9248 59.7114C22.6264 59.8804 22.349 60.0286 22.115 60.1555C19.1526 61.6132 7.85814 67.4658 5.04526 73.6568C1.84894 80.6716 5.55711 85.7009 8.00759 86.3765C15.6154 88.4686 23.4362 84.7076 27.6343 78.4953C31.8323 72.2834 31.321 64.2119 29.3819 60.5144C29.3604 60.4722 29.3394 60.4296 29.2964 60.3875C30.0637 59.9439 30.8521 59.479 31.6194 59.0354C33.0297 58.2088 34.4578 57.4126 35.9029 56.6474C35.1781 58.6126 34.6452 60.958 34.3898 64.3387C34.0699 68.3113 35.7105 73.4665 37.863 75.4947C38.8223 76.3828 39.9516 76.4037 40.6764 76.4037C43.1908 76.4037 44.3206 74.3329 45.5778 71.8819C47.112 68.8818 48.4972 65.3954 48.4972 65.3954C48.4972 65.3954 46.771 74.8191 51.4595 74.8191C53.1641 74.8191 54.8902 72.6214 55.6576 71.5017V71.5226C55.6576 71.5226 55.7001 71.4592 55.7855 71.3114C55.956 71.0368 56.0625 70.8674 56.0625 70.8674V70.8257C56.7443 69.6421 58.279 66.9587 60.559 62.5004C63.4998 56.7534 66.3342 49.5696 66.3342 49.5696C66.3342 49.5696 66.5901 51.3232 67.4635 54.239C67.9753 55.9505 69.0401 57.831 69.8929 59.648C69.2111 60.5991 68.7847 61.127 68.7847 61.127L68.8061 61.1483C68.2518 61.8665 67.6554 62.6481 66.9946 63.4094C64.6716 66.1558 61.9017 69.3045 61.5178 70.2126C61.0699 71.2901 61.1769 72.0722 62.0296 72.7062C62.6475 73.1711 63.7553 73.234 64.885 73.1711C66.9735 73.0229 68.4437 72.5158 69.1681 72.1991C70.2978 71.7976 71.619 71.1846 72.8548 70.276C75.1353 68.6067 76.52 66.2192 76.3925 63.0714C76.3285 61.3386 75.7531 59.6059 75.0498 57.9787C75.2632 57.6833 75.4547 57.3874 75.6681 57.0915C79.2694 51.8724 82.0612 46.1462 82.0612 46.1462C82.0612 46.1462 82.3172 47.8998 83.1905 50.8161C83.6169 52.2951 84.4907 53.901 85.2575 55.4643C81.8693 58.1903 79.7808 61.3594 79.0349 63.4302C77.6927 67.2759 78.7365 69.0082 80.7185 69.4097C81.6134 69.6 82.8921 69.1772 83.8298 68.7757C85.0231 68.3956 86.4298 67.7408 87.7725 66.7684C90.0529 65.0995 92.2475 62.775 92.1195 59.6272C92.0555 58.1903 91.6721 56.7743 91.1392 55.4009C94.0161 54.2182 97.7243 53.563 102.455 54.1122C112.599 55.2953 114.602 61.5706 114.218 64.2123C113.835 66.8531 111.704 68.29 111.001 68.7336C110.297 69.1777 110.063 69.3254 110.127 69.6421C110.212 70.107 110.553 70.0862 111.15 70.0014C111.981 69.8537 116.478 67.8672 116.669 63.0075C116.989 56.7956 111.022 50.0132 100.473 50.0766ZM22.2215 76.2346C18.8542 79.8687 14.1662 81.2421 12.1417 80.0803C9.96815 78.8333 10.8205 73.4665 14.9546 69.6213C17.469 67.2759 20.7083 65.0991 22.8608 63.7683C23.3507 63.4724 24.0755 63.0501 24.9493 62.5217C25.0983 62.437 25.1838 62.3948 25.1838 62.3948L25.6952 62.0776C27.2079 67.5713 25.7592 72.4103 22.2215 76.2346ZM46.7285 59.7114C45.5563 62.543 43.1058 69.7903 41.6142 69.3888C40.3354 69.0508 39.5466 63.5571 41.3582 58.1269C42.2745 55.4009 44.2136 52.147 45.3433 50.8796C47.1759 48.8509 49.2005 48.1744 49.6904 48.9991C50.3087 50.0766 47.4529 57.9365 46.7285 59.7114ZM66.9521 69.3041C66.4617 69.5578 65.9933 69.7269 65.7798 69.6C65.6309 69.5153 65.9933 69.1772 65.9933 69.1772C65.9933 69.1772 68.5292 66.473 69.5305 65.2473C70.1063 64.5291 70.7877 63.684 71.5126 62.7329V63.0075C71.5126 66.2405 68.3583 68.4169 66.9516 69.3041H66.9521ZM82.5511 65.7756C82.1887 65.5219 82.2527 64.6768 83.4674 62.0355C83.9363 61.0001 85.0441 59.2678 86.9412 57.5985C87.1541 58.2746 87.3036 58.9298 87.2821 59.5424C87.2606 63.6205 84.3202 65.1417 82.5511 65.7756Z" fill="#CD6799"/>
</symbol>

<symbol id="insta_icon"  viewBox="0 0 38 39">
<path d="M25 19.5C25 20.6867 24.6481 21.8467 23.9888 22.8334C23.3295 23.8201 22.3925 24.5892 21.2961 25.0433C20.1997 25.4974 18.9933 25.6162 17.8295 25.3847C16.6656 25.1532 15.5965 24.5818 14.7574 23.7426C13.9182 22.9035 13.3468 21.8344 13.1153 20.6705C12.8838 19.5067 13.0026 18.3003 13.4567 17.2039C13.9108 16.1075 14.6799 15.1705 15.6666 14.5112C16.6533 13.8519 17.8133 13.5 19 13.5C20.5907 13.5018 22.1158 14.1346 23.2406 15.2594C24.3654 16.3842 24.9982 17.9093 25 19.5ZM37.75 11.25V27.75C37.7468 30.5338 36.6396 33.2027 34.6711 35.1711C32.7027 37.1396 30.0338 38.2468 27.25 38.25H10.75C7.9662 38.2468 5.29733 37.1396 3.32889 35.1711C1.36044 33.2027 0.253176 30.5338 0.25 27.75V11.25C0.253176 8.4662 1.36044 5.79733 3.32889 3.82889C5.29733 1.86044 7.9662 0.753176 10.75 0.75H27.25C30.0338 0.753176 32.7027 1.86044 34.6711 3.82889C36.6396 5.79733 37.7468 8.4662 37.75 11.25ZM28 19.5C28 17.72 27.4722 15.9799 26.4832 14.4999C25.4943 13.0198 24.0887 11.8663 22.4442 11.1851C20.7996 10.5039 18.99 10.3257 17.2442 10.6729C15.4984 11.0202 13.8947 11.8774 12.636 13.136C11.3774 14.3947 10.5202 15.9984 10.1729 17.7442C9.82567 19.49 10.0039 21.2996 10.6851 22.9442C11.3663 24.5887 12.5198 25.9943 13.9999 26.9832C15.4799 27.9722 17.22 28.5 19 28.5C21.3861 28.4973 23.6738 27.5482 25.361 25.861C27.0482 24.1738 27.9973 21.8861 28 19.5ZM31 9.75C31 9.30499 30.868 8.86998 30.6208 8.49997C30.3736 8.12996 30.0222 7.84157 29.611 7.67127C29.1999 7.50097 28.7475 7.45642 28.311 7.54323C27.8746 7.63005 27.4737 7.84434 27.159 8.15901C26.8443 8.47368 26.63 8.87459 26.5432 9.31105C26.4564 9.7475 26.501 10.1999 26.6713 10.611C26.8416 11.0222 27.13 11.3736 27.5 11.6208C27.87 11.868 28.305 12 28.75 12C29.3467 12 29.919 11.7629 30.341 11.341C30.7629 10.919 31 10.3467 31 9.75Z" fill="#25282B"/>
</symbol>

<symbol id="linkedin_icon" viewBox="0 0 48 49">
<path d="M5 8.22175C5 6.71837 6.24925 5.5 7.79062 5.5H40.2094C41.7507 5.5 43 6.71837 43 8.22175V40.7783C43 42.2816 41.7507 43.5 40.2094 43.5H7.79062C6.24925 43.5 5 42.2816 5 40.7783V8.22175ZM16.7396 37.3108V20.1514H11.0373V37.3108H16.7396ZM13.8896 17.8073C15.8775 17.8073 17.1149 16.4915 17.1149 14.8433C17.0792 13.1594 15.8799 11.8793 13.9276 11.8793C11.9754 11.8793 10.7 13.1617 10.7 14.8433C10.7 16.4915 11.9374 17.8073 13.8516 17.8073H13.8896ZM25.5461 37.3108V27.7276C25.5461 27.2146 25.5841 26.7016 25.7361 26.3359C26.147 25.3123 27.0851 24.2506 28.6621 24.2506C30.726 24.2506 31.5501 25.8229 31.5501 28.1314V37.3108H37.2525V27.4688C37.2525 22.1962 34.4405 19.7453 30.688 19.7453C27.6623 19.7453 26.3061 21.4078 25.5461 22.5786V22.638H25.5081C25.5207 22.6182 25.5334 22.5984 25.5461 22.5786V20.1514H19.8461C19.9174 21.7616 19.8461 37.3108 19.8461 37.3108H25.5461Z" fill="#25282B"/>
</symbol>

<symbol id="email_icon" viewBox="0 0 48 49">
<path fill-rule="evenodd" clip-rule="evenodd" d="M3.13125 12.6467C3.3959 11.4686 4.04647 10.4168 4.97642 9.66349C5.90637 8.91014 7.06057 8.49992 8.25 8.5H39.75C40.9394 8.49992 42.0936 8.91014 43.0236 9.66349C43.9535 10.4168 44.6041 11.4686 44.8687 12.6467L24 25.604L3.13125 12.6467ZM3 15.692V34.636L18.2329 25.148L3 15.692ZM20.7476 26.7133L3.50138 37.452C3.92748 38.3648 4.60001 39.1358 5.44068 39.6754C6.28135 40.215 7.25558 40.501 8.25 40.5H39.75C40.7443 40.5002 41.7181 40.2136 42.5583 39.6736C43.3985 39.1335 44.0705 38.3622 44.496 37.4493L27.2498 26.7107L24 28.7293L20.7476 26.7107V26.7133ZM29.7671 25.1507L45 34.636V15.692L29.7671 25.148V25.1507Z" fill="#25282B"/>
</symbol>

<symbol id="yellow-bg" viewBox="0 0 720 629">
<path fill-rule="evenodd" clip-rule="evenodd" d="M426.755 -247.339C526.01 -242.623 630.416 -205.737 691.019 -128.942C747.053 -57.9359 709.403 42.8884 725.408 131.114C738.276 202.044 786.302 264.961 775.404 336.204C763.332 415.132 724.842 490.453 662.532 542.186C597.271 596.368 510.835 641.895 426.755 625.671C345.261 609.947 319.875 506.823 250.249 462.635C174.069 414.287 41.2528 440.785 6.43092 358.913C-27.6816 278.71 83.9568 208.257 106.308 124.209C131.067 31.1084 79.6084 -81.3667 143.094 -154.976C208.865 -231.236 324.689 -252.189 426.755 -247.339Z" fill="#FDC435"/>
</symbol>

<symbol id="footer_yellow" viewBox="0 0 1440 344">
<path fill-rule="evenodd" clip-rule="evenodd" d="M0 258L60 229.333C120 200.667 240 143.333 360 150.5C480 157.667 600 229.333 720 229.333C840 229.333 960 157.667 1080 107.5C1200 57.3333 1320 28.6667 1380 14.3333L1440 0V344H1380C1320 344 1200 344 1080 344C960 344 840 344 720 344C600 344 480 344 360 344C240 344 120 344 60 344H0V258Z" fill="#FDC435"/>
</symbol>
</svg>